<svg width="81" height="81" viewBox="0 0 81 81" fill="none" xmlns="http://www.w3.org/2000/svg">
<circle cx="40.5" cy="40.5" r="38" fill="none" stroke="#0177fd" stroke-width="5"/>
<path d="M50 25C50 29.9706 45.9706 34 41 34C36.0294 34 32 29.9706 32 25C32 20.0294 36.0294 16 41 16C45.9706 16 50 20.0294 50 25Z" fill="#0177fd"/>
<path d="M64 58.5C64 52.7978 61.6295 47.3292 57.4099 43.2972C53.1903 39.2652 47.4674 37 41.5 37C35.5326 37 29.8097 39.2652 25.5901 43.2972C21.3705 47.3292 19 52.7978 19 58.5L41.5 58.5H64Z" fill="#0177fd"/>
</svg>
